<?xml version="1.0" encoding="utf-8"?>
<!-- Generator: Adobe Illustrator 21.0.2, SVG Export Plug-In . SVG Version: 6.00 Build 0)  -->
<svg version="1.1" id="Layer_1" xmlns="http://www.w3.org/2000/svg" xmlns:xlink="http://www.w3.org/1999/xlink" x="0px" y="0px"
	 viewBox="0 0 889.3 773.1" style="enable-background:new 0 0 889.3 773.1;" xml:space="preserve">
<style type="text/css">
	.st0{fill:#FF0000;}
	.st1{fill:#57FF55;}
	.st2{fill:#2BBBFE;}
	.st3{fill:#BE95FF;}
	.st4{fill:#FE9308;}
	.st5{fill:#FEF506;}
	.st6{fill:none;stroke:#FFFFFF;stroke-width:15;stroke-miterlimit:10;}
	.st7{fill:none;stroke:#FFFFFF;stroke-width:10;stroke-miterlimit:10;}
</style>
<g id="Layer_1_1_">
</g>
<g id="Layer_10">
	<rect x="-92.3" y="-168.9" width="1920" height="1080"/>
</g>
<g id="Layer_4">
	<polyline class="st0" points="1015.2,313.6 1732.2,424.6 1732.2,396.6 1002.2,293.6 1015.2,313.6 	"/>
	<path class="st0" d="M1029.7,335.1"/>
</g>
<g id="Layer_7">
	<path class="st1" d="M1041.7,371.1l690,117L1041.7,371.1z"/>
	<polygon class="st1" points="1732.7,516.1 1731.7,488.1 1029.7,353.1 1041.7,371.1 	"/>
</g>
<g id="Layer_8">
	<polygon class="st2" points="1732.7,516.1 1041.7,371.1 1052.7,390.1 1732.7,543.1 	"/>
</g>
<g id="Layer_9">
	<polygon class="st3" points="1731.7,543.1 1052.7,390.1 1064.7,412.1 1731.7,572.1 	"/>
</g>
<g id="Layer_11">
	<polygon class="st4" points="1732.7,425.1 1004.7,311.1 1018.7,337.1 1730.7,458.1 	"/>
</g>
<g id="Layer_6">
	<polyline class="st5" points="1731.7,458.1 1024.7,335.1 1029.7,353.1 1731.7,488.1 1731.7,458.1 	"/>
</g>
<g id="Layer_2">
	<polygon class="st6" points="581.7,634.1 889.7,109.1 1193.7,634.1 	"/>
</g>
<g id="Layer_3">
	<line class="st7" x1="3.2" y1="550.6" x2="743.7" y2="353.1"/>
</g>
</svg>
