<?xml version="1.0" encoding="utf-8"?>
<!-- Generator: Adobe Illustrator 21.0.2, SVG Export Plug-In . SVG Version: 6.00 Build 0)  -->
<svg version="1.1" id="Layer_1" xmlns="http://www.w3.org/2000/svg" xmlns:xlink="http://www.w3.org/1999/xlink" x="0px" y="0px"
	 viewBox="0 0 843 774" style="enable-background:new 0 0 843 774;" xml:space="preserve">
<style type="text/css">
	.st0{fill:#FF0000;}
	.st1{fill:#57FF55;}
	.st2{fill:#2BBBFE;}
	.st3{fill:#BE95FF;}
	.st4{fill:#FE9308;}
	.st5{fill:#FEF506;}
	.st6{fill:none;stroke:#FFFFFF;stroke-width:15;stroke-miterlimit:10;}
	.st7{fill:none;stroke:#FFFFFF;stroke-width:10;stroke-miterlimit:10;}
</style>
<g id="Layer_1_1_">
</g>
<g id="Layer_10">
	<rect x="-982" y="-168" width="1920" height="1080"/>
</g>
<g id="Layer_4">
	<polyline class="st0" points="125.5,314.5 842.5,425.5 842.5,397.5 112.5,294.5 125.5,314.5 	"/>
	<path class="st0" d="M140,336"/>
</g>
<g id="Layer_7">
	<path class="st1" d="M152,372l690,117L152,372z"/>
	<polygon class="st1" points="843,517 842,489 140,354 152,372 	"/>
</g>
<g id="Layer_8">
	<polygon class="st2" points="843,517 152,372 163,391 843,544 	"/>
</g>
<g id="Layer_9">
	<polygon class="st3" points="842,544 163,391 175,413 842,573 	"/>
</g>
<g id="Layer_11">
	<polygon class="st4" points="843,426 115,312 129,338 841,459 	"/>
</g>
<g id="Layer_6">
	<polyline class="st5" points="842,459 135,336 140,354 842,489 842,459 	"/>
</g>
<g id="Layer_2">
	<polygon class="st6" points="-308,635 0,110 304,635 	"/>
</g>
<g id="Layer_3">
	<line class="st7" x1="-886.5" y1="551.5" x2="-146" y2="354"/>
</g>
</svg>
